<?xml version="1.0" standalone="no"?><!DOCTYPE svg PUBLIC "-//W3C//DTD SVG 1.1//EN" "http://www.w3.org/Graphics/SVG/1.1/DTD/svg11.dtd"><svg width="100%" height="100%" viewBox="0 0 336 71" version="1.1" xmlns="http://www.w3.org/2000/svg" xmlns:xlink="http://www.w3.org/1999/xlink" xml:space="preserve" style="fill-rule:evenodd;clip-rule:evenodd;stroke-linejoin:round;stroke-miterlimit:1.41421;"><g transform="matrix(1.30862,0,0,1,-5.76,3.888)"><g transform="matrix(0.764166,0,0,1,0,0)"><path d="M5.76,0l5.616,0l0,12.672c0,1.344 -0.024,2.712 -0.072,4.104c-0.048,1.392 -0.12,2.904 -0.216,4.536l0.072,0.072c1.776,-1.152 3.708,-2.148 5.796,-2.988c2.088,-0.84 4.308,-1.26 6.66,-1.26c3.312,0 5.88,0.912 7.704,2.736c1.824,1.824 2.736,4.8 2.736,8.928l0,24.336l-5.616,0l0,-23.4c0,-3.024 -0.588,-5.112 -1.764,-6.264c-1.176,-1.152 -2.7,-1.728 -4.572,-1.728c-1.728,0 -3.492,0.36 -5.292,1.08c-1.8,0.72 -3.612,1.752 -5.436,3.096l0,27.216l-5.616,0l0,-53.136Z" style="fill:#a5a5a5;fill-rule:nonzero;"/><path d="M63.792,49.392c0,0.816 -0.072,1.488 -0.216,2.016c-0.144,0.528 -0.384,0.972 -0.72,1.332c-0.336,0.36 -0.78,0.612 -1.332,0.756c-0.552,0.144 -1.26,0.216 -2.124,0.216c-0.864,0 -1.572,-0.072 -2.124,-0.216c-0.552,-0.144 -0.996,-0.396 -1.332,-0.756c-0.336,-0.36 -0.576,-0.804 -0.72,-1.332c-0.144,-0.528 -0.216,-1.2 -0.216,-2.016c0,-0.864 0.072,-1.56 0.216,-2.088c0.144,-0.528 0.384,-0.96 0.72,-1.296c0.336,-0.336 0.78,-0.576 1.332,-0.72c0.552,-0.144 1.26,-0.216 2.124,-0.216c0.864,0 1.572,0.072 2.124,0.216c0.552,0.144 0.996,0.384 1.332,0.72c0.336,0.336 0.576,0.768 0.72,1.296c0.144,0.528 0.216,1.224 0.216,2.088Z" style="fill:#a5a5a5;fill-rule:nonzero;"/><path d="M108,49.392c-1.968,1.296 -3.948,2.364 -5.94,3.204c-1.992,0.84 -4.068,1.26 -6.228,1.26c-1.968,0 -3.744,-0.288 -5.328,-0.864c-1.584,-0.576 -2.916,-1.548 -3.996,-2.916c-1.08,-1.368 -1.92,-3.204 -2.52,-5.508c-0.6,-2.304 -0.9,-5.208 -0.9,-8.712c0,-3.504 0.42,-6.456 1.26,-8.856c0.84,-2.4 1.968,-4.32 3.384,-5.76c1.416,-1.44 3.048,-2.484 4.896,-3.132c1.848,-0.648 3.78,-0.972 5.796,-0.972c1.728,0 3.348,0.228 4.86,0.684c1.512,0.456 2.964,1.044 4.356,1.764l0.072,-0.072c-0.096,-1.536 -0.168,-2.988 -0.216,-4.356c-0.048,-1.368 -0.072,-2.724 -0.072,-4.068l0,-11.088l5.616,0l0,53.136l-4.608,0l-0.432,-3.744ZM107.424,24.12c-1.488,-0.768 -2.868,-1.38 -4.14,-1.836c-1.272,-0.456 -2.7,-0.684 -4.284,-0.684c-1.296,0 -2.568,0.204 -3.816,0.612c-1.248,0.408 -2.352,1.14 -3.312,2.196c-0.96,1.056 -1.728,2.496 -2.304,4.32c-0.576,1.824 -0.864,4.128 -0.864,6.912c0,2.784 0.204,5.064 0.612,6.84c0.408,1.776 0.972,3.156 1.692,4.14c0.72,0.984 1.596,1.668 2.628,2.052c1.032,0.384 2.22,0.576 3.564,0.576c1.632,0 3.24,-0.348 4.824,-1.044c1.584,-0.696 3.384,-1.716 5.4,-3.06l0,-21.024Z" style="fill:#ff8958;fill-rule:nonzero;"/><path d="M146.448,66.024c-2.448,-2.496 -4.62,-5.076 -6.516,-7.74c-1.896,-2.664 -3.492,-5.424 -4.788,-8.28c-1.296,-2.856 -2.28,-5.844 -2.952,-8.964c-0.672,-3.12 -1.008,-6.432 -1.008,-9.936c0,-3.504 0.336,-6.816 1.008,-9.936c0.672,-3.12 1.656,-6.108 2.952,-8.964c1.296,-2.856 2.892,-5.616 4.788,-8.28c1.896,-2.664 4.068,-5.268 6.516,-7.812l3.816,2.52c-2.208,2.352 -4.164,4.776 -5.868,7.272c-1.704,2.496 -3.132,5.076 -4.284,7.74c-1.152,2.664 -2.028,5.448 -2.628,8.352c-0.6,2.904 -0.9,5.94 -0.9,9.108c0,3.216 0.312,6.264 0.936,9.144c0.624,2.88 1.512,5.652 2.664,8.316c1.152,2.664 2.58,5.232 4.284,7.704c1.704,2.472 3.66,4.884 5.868,7.236l-3.888,2.52Z" style="fill:#a5a5a5;fill-rule:nonzero;"/><path d="M187.2,49.392c-1.968,1.296 -3.948,2.364 -5.94,3.204c-1.992,0.84 -4.068,1.26 -6.228,1.26c-1.968,0 -3.744,-0.288 -5.328,-0.864c-1.584,-0.576 -2.916,-1.548 -3.996,-2.916c-1.08,-1.368 -1.92,-3.204 -2.52,-5.508c-0.6,-2.304 -0.9,-5.208 -0.9,-8.712c0,-3.504 0.42,-6.456 1.26,-8.856c0.84,-2.4 1.968,-4.32 3.384,-5.76c1.416,-1.44 3.048,-2.484 4.896,-3.132c1.848,-0.648 3.78,-0.972 5.796,-0.972c1.728,0 3.348,0.228 4.86,0.684c1.512,0.456 2.964,1.044 4.356,1.764l0.072,-0.072c-0.096,-1.536 -0.168,-2.988 -0.216,-4.356c-0.048,-1.368 -0.072,-2.724 -0.072,-4.068l0,-11.088l5.616,0l0,53.136l-4.608,0l-0.432,-3.744ZM186.624,24.12c-1.488,-0.768 -2.868,-1.38 -4.14,-1.836c-1.272,-0.456 -2.7,-0.684 -4.284,-0.684c-1.296,0 -2.568,0.204 -3.816,0.612c-1.248,0.408 -2.352,1.14 -3.312,2.196c-0.96,1.056 -1.728,2.496 -2.304,4.32c-0.576,1.824 -0.864,4.128 -0.864,6.912c0,2.784 0.204,5.064 0.612,6.84c0.408,1.776 0.972,3.156 1.692,4.14c0.72,0.984 1.596,1.668 2.628,2.052c1.032,0.384 2.22,0.576 3.564,0.576c1.632,0 3.24,-0.348 4.824,-1.044c1.584,-0.696 3.384,-1.716 5.4,-3.06l0,-21.024Z" style="fill:#b4ff86;fill-rule:nonzero;"/><path d="M231.408,52.128c-1.824,0.528 -3.756,0.948 -5.796,1.26c-2.04,0.312 -4.284,0.468 -6.732,0.468c-2.448,0 -4.668,-0.24 -6.66,-0.72c-1.992,-0.48 -3.684,-1.368 -5.076,-2.664c-1.392,-1.296 -2.46,-3.132 -3.204,-5.508c-0.744,-2.376 -1.116,-5.484 -1.116,-9.324c0,-3.744 0.384,-6.816 1.152,-9.216c0.768,-2.4 1.86,-4.308 3.276,-5.724c1.416,-1.416 3.108,-2.412 5.076,-2.988c1.968,-0.576 4.152,-0.864 6.552,-0.864c2.256,0 4.248,0.252 5.976,0.756c1.728,0.504 3.192,1.368 4.392,2.592c1.2,1.224 2.088,2.892 2.664,5.004c0.576,2.112 0.864,4.8 0.864,8.064c0,0.576 0,1.116 0,1.62c0,0.504 -0.024,1.092 -0.072,1.764l-24.192,0c0,2.784 0.252,5.016 0.756,6.696c0.504,1.68 1.236,2.964 2.196,3.852c0.96,0.888 2.148,1.476 3.564,1.764c1.416,0.288 3.06,0.432 4.932,0.432c2.112,0 4.032,-0.144 5.76,-0.432c1.728,-0.288 3.432,-0.648 5.112,-1.08l0.576,4.248ZM227.52,32.688c0,-2.352 -0.204,-4.272 -0.612,-5.76c-0.408,-1.488 -0.996,-2.652 -1.764,-3.492c-0.768,-0.84 -1.704,-1.416 -2.808,-1.728c-1.104,-0.312 -2.352,-0.468 -3.744,-0.468c-1.44,0 -2.772,0.168 -3.996,0.504c-1.224,0.336 -2.268,0.936 -3.132,1.8c-0.864,0.864 -1.548,2.028 -2.052,3.492c-0.504,1.464 -0.804,3.348 -0.9,5.652l19.008,0Z" style="fill:#b4ff86;fill-rule:nonzero;"/><path d="M239.832,17.856l5.832,0l7.56,19.296c0.432,1.152 0.828,2.208 1.188,3.168c0.36,0.96 0.696,1.908 1.008,2.844c0.312,0.936 0.636,1.884 0.972,2.844c0.336,0.96 0.696,2.016 1.08,3.168l0.072,0c0.384,-1.152 0.744,-2.22 1.08,-3.204c0.336,-0.984 0.66,-1.944 0.972,-2.88c0.312,-0.936 0.648,-1.884 1.008,-2.844c0.36,-0.96 0.756,-1.992 1.188,-3.096l7.56,-19.296l5.616,0l-13.752,35.28l-7.704,0l-13.68,-35.28Z" style="fill:#b4ff86;fill-rule:nonzero;"/><path d="M285.336,63.576c2.208,-2.352 4.164,-4.764 5.868,-7.236c1.704,-2.472 3.132,-5.052 4.284,-7.74c1.152,-2.688 2.028,-5.484 2.628,-8.388c0.6,-2.904 0.9,-5.964 0.9,-9.18c0,-3.168 -0.312,-6.192 -0.936,-9.072c-0.624,-2.88 -1.512,-5.652 -2.664,-8.316c-1.152,-2.664 -2.58,-5.232 -4.284,-7.704c-1.704,-2.472 -3.66,-4.884 -5.868,-7.236l3.888,-2.592c2.448,2.544 4.62,5.148 6.516,7.812c1.896,2.664 3.492,5.424 4.788,8.28c1.296,2.856 2.28,5.844 2.952,8.964c0.672,3.12 1.008,6.408 1.008,9.864c0,3.504 -0.336,6.828 -1.008,9.972c-0.672,3.144 -1.656,6.144 -2.952,9c-1.296,2.856 -2.892,5.616 -4.788,8.28c-1.896,2.664 -4.068,5.244 -6.516,7.74l-3.816,-2.448Z" style="fill:#a5a5a5;fill-rule:nonzero;"/><path d="M340.992,25.92c0,0.816 -0.072,1.5 -0.216,2.052c-0.144,0.552 -0.384,0.996 -0.72,1.332c-0.336,0.336 -0.78,0.576 -1.332,0.72c-0.552,0.144 -1.26,0.216 -2.124,0.216c-0.864,0 -1.572,-0.072 -2.124,-0.216c-0.552,-0.144 -0.996,-0.384 -1.332,-0.72c-0.336,-0.336 -0.576,-0.78 -0.72,-1.332c-0.144,-0.552 -0.216,-1.236 -0.216,-2.052c0,-0.816 0.072,-1.5 0.216,-2.052c0.144,-0.552 0.384,-1.008 0.72,-1.368c0.336,-0.36 0.78,-0.6 1.332,-0.72c0.552,-0.12 1.26,-0.18 2.124,-0.18c0.864,0 1.572,0.06 2.124,0.18c0.552,0.12 0.996,0.36 1.332,0.72c0.336,0.36 0.576,0.816 0.72,1.368c0.144,0.552 0.216,1.236 0.216,2.052ZM324.72,64.44c1.824,-2.016 3.492,-3.912 5.004,-5.688c1.512,-1.776 2.916,-3.624 4.212,-5.544c-0.576,-0.288 -1.008,-0.708 -1.296,-1.26c-0.288,-0.552 -0.432,-1.404 -0.432,-2.556c0,-0.864 0.072,-1.56 0.216,-2.088c0.144,-0.528 0.384,-0.96 0.72,-1.296c0.336,-0.336 0.78,-0.576 1.332,-0.72c0.552,-0.144 1.26,-0.216 2.124,-0.216c0.864,0 1.572,0.072 2.124,0.216c0.552,0.144 0.996,0.384 1.332,0.72c0.336,0.336 0.576,0.768 0.72,1.296c0.144,0.528 0.216,1.224 0.216,2.088c0,1.008 -0.108,1.824 -0.324,2.448c-0.216,0.624 -0.516,1.248 -0.9,1.872c-0.528,0.864 -1.248,1.836 -2.16,2.916c-0.912,1.08 -1.932,2.208 -3.06,3.384c-1.128,1.176 -2.316,2.352 -3.564,3.528c-1.248,1.176 -2.496,2.316 -3.744,3.42l-2.52,-2.52Z" style="fill:#a5a5a5;fill-rule:nonzero;"/></g></g></svg>